inDegrees=yes
name=ik_S51_A12_T02
DataType=double
version=3
OpenSimVersion=4.3-2021-08-27-4bc7ad9
endheader
time	pelvis_tilt	pelvis_list	pelvis_rotation	pelvis_tx	pelvis_ty	pelvis_tz	hip_flexion_r	hip_adduction_r	hip_rotation_r	knee_angle_r	knee_angle_r_beta	ankle_angle_r	subtalar_angle_r	mtp_angle_r	hip_flexion_l	hip_adduction_l	hip_rotation_l	knee_angle_l	knee_angle_l_beta	ankle_angle_l	subtalar_angle_l	mtp_angle_l	lumbar_extension	lumbar_bending	lumbar_rotation	arm_flex_r	arm_add_r	arm_rot_r	elbow_flex_r	pro_sup_r	wrist_flex_r	wrist_dev_r	arm_flex_l	arm_add_l	arm_rot_l	elbow_flex_l	pro_sup_l	wrist_flex_l	wrist_dev_l
13.6799999999998	0.5601242382737894	0.5273218708926439	41.70914901610523	0	0.9399999999999999	0	32.76402998160915	-9.628519238189746	-9.041977173982483	36.7327034151724	0.641106617753324	0	0	0	32.76402998160915	-9.628519238189746	-9.041977173982483	36.7327034151724	0.641106617753324	0	0	0	1.034851221231686	-0.07191492838443174	5.272200162613745	2.031181533146322	-4.880288745642984	-10.25233323348728	4.711319533541055	154.8564990324714	0	0	49.74679936436188	-20.68658482267171	-13.00397104705112	29.44433730447631	94.21113252350278	0	0
13.6999999999998	0.5539618746489551	0.4478238144630625	41.91627307253803	0	0.9399999999999999	0	32.77592199169363	-9.629748874589643	-9.044011155119511	36.74523577114095	0.6413253486280072	0	0	0	32.77592199169363	-9.629748874589643	-9.044011155119511	36.74523577114095	0.6413253486280072	0	0	0	0.9797756001271747	-0.1373530097765931	5.188373440384033	2.162386127941981	-4.800432735713636	-10.39557478774126	4.660988342936956	155.0541349847901	0	0	47.47727426096002	-20.60919987216184	-13.98189191041712	27.95272030284852	97.20254018266836	0	0
13.7199999999998	0.5556325441693715	0.4058048639143159	42.05549516323915	0	0.9399999999999999	0	32.78701316472006	-9.630892855277216	-9.045905815789542	36.75692933066679	0.641529439743011	0	0	0	32.78701316472006	-9.630892855277216	-9.045905815789542	36.75692933066679	0.641529439743011	0	0	0	0.9558861165338443	-0.1792953694054353	5.083180330303587	2.173384394763634	-4.817837986637747	-10.23778145236319	4.754110964605153	155.1768243305325	0	0	45.08175055676391	-20.34370485609457	-14.97437447137964	26.45540049743058	100.1132121849359	0	0
13.7399999999998	0.5557011819932404	0.4057887776344111	42.14814380108604	0	0.9399999999999999	0	32.79882831745598	-9.632108903010549	-9.047922100125827	36.76938798551564	0.641746884290493	0	0	0	32.79882831745598	-9.632108903010549	-9.047922100125827	36.76938798551564	0.641746884290493	0	0	0	0.9542250630112101	-0.1843795778425229	4.990808134009606	2.17217731420576	-4.831536281676298	-10.12520296239233	4.79079806613279	155.0988594387607	0	0	42.62555098629738	-20.04568263405482	-15.98462788837966	24.98792094026091	102.7180889841532	0	0
13.7599999999998	0.5549928288854169	0.4067824660262893	42.22004935435614	0	0.9399999999999999	0	32.81055081480343	-9.633312653918253	-9.049920390332701	36.78175107608858	0.6419626609267131	0	0	0	32.81055081480343	-9.633312653918253	-9.049920390332701	36.78175107608858	0.6419626609267131	0	0	0	0.9549915146641386	-0.1869783163139519	4.920753893441566	2.165547599463	-4.865686381844981	-10.09380974156928	4.839377839710541	155.1225728634784	0	0	40.27714727001518	-19.76108367592437	-16.87858139828606	23.63299187931911	104.7751558530909	0	0
13.7799999999998	0.5591276988870182	0.4205512027529876	42.25483290174892	0	0.9399999999999999	0	32.81761640810969	-9.634035209249683	-9.051121959052042	36.7892201853006	0.6420930214746539	0	0	0	32.81761640810969	-9.634035209249683	-9.051121959052042	36.7892201853006	0.6420930214746539	0	0	0	0.9668748506602201	-0.1815912082876439	4.871922573753086	2.131376021617613	-4.876673306293887	-10.07382728211699	4.869566463754169	155.1446201566072	0	0	38.01740029164543	-19.43762953362683	-17.63558934877537	22.31618281023886	106.4009149964331	0	0
13.79999999999979	0.5577635535502183	0.4171573644375942	42.26271416991011	0	0.9399999999999999	0	32.82467485496795	-9.634756176185146	-9.052321654460458	36.79668174302019	0.6422232502241884	0	0	0	32.82467485496795	-9.634756176185146	-9.052321654460458	36.79668174302019	0.6422232502241884	0	0	0	0.9642163917437692	-0.1825723529146688	4.864680515847537	2.147748898731277	-4.875330757930342	-10.07383392636451	4.89318675777827	155.1258066460994	0	0	36.00056514070521	-19.05812876648001	-18.19927404611889	20.83805336731797	107.9321583520214	0	0
